<svg width="25" height="25" viewBox="0 0 25 25" fill="none" xmlns="http://www.w3.org/2000/svg">
<g clip-path="url(#clip0_832_355)">
<path d="M26.4995 24.4107C26.4293 24.5683 26.3054 24.7037 26.1443 24.7987C25.9832 24.8938 25.7925 24.944 25.5977 24.9429C25.4825 24.9595 25.3674 24.9595 25.2523 24.9429L14.1426 20.8855L3.0137 24.9429C2.89628 24.9827 2.77097 25.002 2.64491 24.9998C2.51886 24.9976 2.39454 24.9739 2.27907 24.9301C2.16359 24.8862 2.05922 24.8231 1.97193 24.7442C1.88464 24.6654 1.81613 24.5724 1.77033 24.4706L1.76649 24.4606C1.70092 24.3531 1.66335 24.2345 1.65644 24.113C1.64953 23.9915 1.67345 23.8703 1.7265 23.7577C1.77956 23.6451 1.86047 23.544 1.96352 23.4615C2.06657 23.3789 2.18926 23.317 2.32294 23.28L11.629 19.9543L2.32294 16.6286C2.19666 16.5953 2.07966 16.5398 1.97926 16.4656C1.87885 16.3913 1.7972 16.2999 1.73942 16.1971C1.68163 16.0943 1.64895 15.9822 1.64342 15.8679C1.63789 15.7537 1.65963 15.6396 1.70727 15.5329C1.75492 15.4263 1.82745 15.3293 1.92032 15.248C2.0132 15.1667 2.12442 15.103 2.24704 15.0606C2.36966 15.0183 2.50104 14.9984 2.63295 15.0021C2.76487 15.0058 2.89448 15.033 3.0137 15.0821L14.1426 19.0896L25.2715 15.0821C25.3907 15.033 25.5203 15.0058 25.6522 15.0021C25.7841 14.9984 25.9155 15.0183 26.0381 15.0606C26.1607 15.103 26.272 15.1667 26.3648 15.248C26.4577 15.3293 26.5302 15.4263 26.5779 15.5329C26.6255 15.6396 26.6473 15.7537 26.6417 15.8679C26.6362 15.9822 26.6035 16.0943 26.5457 16.1971C26.488 16.2999 26.4063 16.3913 26.3059 16.4656C26.2055 16.5398 26.0885 16.5953 25.9622 16.6286L16.637 19.9543L25.943 23.28C26.0691 23.3181 26.1846 23.3786 26.2821 23.4576C26.3796 23.5366 26.4571 23.6324 26.5094 23.7389C26.5618 23.8453 26.588 23.96 26.5863 24.0757C26.5846 24.1914 26.555 24.3055 26.4995 24.4107ZM22.7771 7.03389V7.78217C22.7729 8.13627 22.6385 8.47998 22.3933 8.76326C21.3215 9.79136 20.1674 10.7527 18.9395 11.64V13.5689C18.9409 13.7378 18.8829 13.9031 18.7732 14.0427C18.6635 14.1823 18.5073 14.2897 18.3255 14.3505L14.181 15.7971H14.0466L9.8829 14.3505C9.71541 14.2795 9.57541 14.1678 9.47999 14.029C9.38458 13.8902 9.33789 13.7303 9.34565 13.5689V11.64C8.10388 10.7545 6.93684 9.79315 5.85348 8.76326C5.62194 8.47594 5.50106 8.13257 5.5081 7.78217V7.03389C5.66331 5.24648 6.53792 3.56308 7.97925 2.27752C9.42058 0.991953 11.3371 0.185882 13.3943 0L14.8333 0C16.9022 0.171662 18.8344 0.971876 20.2882 2.25911C21.7419 3.54634 22.6235 5.23765 22.7771 7.03389ZM11.2644 6.65143C11.2644 6.21041 11.0623 5.78746 10.7024 5.47561C10.3426 5.16377 9.85454 4.98857 9.34565 4.98857C8.83676 4.98857 8.34871 5.16377 7.98887 5.47561C7.62903 5.78746 7.42687 6.21041 7.42687 6.65143C7.42687 7.09245 7.62903 7.5154 7.98887 7.82725C8.34871 8.13909 8.83676 8.31429 9.34565 8.31429C9.85454 8.31429 10.3426 8.13909 10.7024 7.82725C11.0623 7.5154 11.2644 7.09245 11.2644 6.65143ZM13.1832 11.64C13.1832 11.4195 13.0821 11.208 12.9022 11.0521C12.7223 10.8962 12.4783 10.8086 12.2238 10.8086C11.9694 10.8086 11.7253 10.8962 11.5454 11.0521C11.3655 11.208 11.2644 11.4195 11.2644 11.64V12.4714C11.2644 12.6919 11.3655 12.9034 11.5454 13.0593C11.7253 13.2153 11.9694 13.3029 12.2238 13.3029C12.4783 13.3029 12.7223 13.2153 12.9022 13.0593C13.0821 12.9034 13.1832 12.6919 13.1832 12.4714V11.64ZM17.0207 11.64C17.0207 11.4195 16.9197 11.208 16.7397 11.0521C16.5598 10.8962 16.3158 10.8086 16.0614 10.8086C15.8069 10.8086 15.5629 10.8962 15.383 11.0521C15.203 11.208 15.102 11.4195 15.102 11.64V12.4714C15.102 12.6919 15.203 12.9034 15.383 13.0593C15.5629 13.2153 15.8069 13.3029 16.0614 13.3029C16.3158 13.3029 16.5598 13.2153 16.7397 13.0593C16.9197 12.9034 17.0207 12.6919 17.0207 12.4714V11.64ZM20.8583 6.65143C20.8583 6.21041 20.6561 5.78746 20.2963 5.47561C19.9364 5.16377 19.4484 4.98857 18.9395 4.98857C18.4306 4.98857 17.9426 5.16377 17.5827 5.47561C17.2229 5.78746 17.0207 6.21041 17.0207 6.65143C17.0207 7.09245 17.2229 7.5154 17.5827 7.82725C17.9426 8.13909 18.4306 8.31429 18.9395 8.31429C19.4484 8.31429 19.9364 8.13909 20.2963 7.82725C20.6561 7.5154 20.8583 7.09245 20.8583 6.65143Z" fill="#F10000"/>
</g>
<defs>
<clipPath id="clip0_832_355">
<rect width="25" height="25" fill="white"/>
</clipPath>
</defs>
</svg>
