<svg width="25" height="25" viewBox="0 0 25 25" fill="none" xmlns="http://www.w3.org/2000/svg">
<path d="M19.1076 15.4877C18.7087 13.9106 17.8462 12.5198 16.6527 11.5286C15.4591 10.5374 14.0002 10.0007 12.5 10.0007C10.9997 10.0007 9.54091 10.5374 8.34732 11.5286C7.15373 12.5198 6.29131 13.9106 5.89235 15.4877L4.94163 19.2461C4.77093 19.9209 4.74546 20.6296 4.86721 21.3169C4.98896 22.0042 5.25464 22.6515 5.64353 23.2084C6.03243 23.7653 6.53402 24.2168 7.10921 24.5275C7.6844 24.8383 8.31764 25 8.95956 25H16.0404C16.6823 25 17.3156 24.8383 17.8908 24.5275C18.466 24.2168 18.9676 23.7653 19.3564 23.2084C19.7453 22.6515 20.011 22.0042 20.1328 21.3169C20.2545 20.6296 20.2291 19.9209 20.0583 19.2461L19.1076 15.4877ZM18.0301 22.1067C17.7978 22.4421 17.497 22.7139 17.1517 22.9005C16.8063 23.0871 16.4258 23.1835 16.0404 23.1819H8.95956C8.5744 23.1819 8.19445 23.0849 7.84933 22.8984C7.50421 22.712 7.20325 22.4411 6.96991 22.107C6.73657 21.7728 6.57716 21.3844 6.50411 20.972C6.43106 20.5596 6.44634 20.1344 6.54877 19.7295L7.4995 15.9712C7.80142 14.7777 8.45408 13.7252 9.35736 12.9751C10.2606 12.225 11.3646 11.8188 12.5 11.8188C13.6353 11.8188 14.7393 12.225 15.6426 12.9751C16.5459 13.7252 17.1986 14.7777 17.5005 15.9712L18.4512 19.7295C18.5551 20.1342 18.5711 20.5598 18.4981 20.9725C18.425 21.3851 18.2647 21.7733 18.0301 22.1067ZM6.77415 11.2683C6.9192 10.2797 6.72685 9.22137 6.23231 8.28755C5.73777 7.35373 4.99336 6.64292 4.13595 6.2856C3.21773 5.90318 2.28117 5.96408 1.49789 6.45702C-0.0592308 7.43742 -0.469001 9.85373 0.584626 11.8434C1.07901 12.7772 1.82347 13.4882 2.68089 13.8454C3.0607 14.0068 3.46442 14.0909 3.87206 14.0937C4.3799 14.0957 4.87916 13.9508 5.31894 13.6739C6.10175 13.1809 6.61858 12.3266 6.77415 11.2683ZM5.12778 10.9809C5.05328 11.4882 4.82508 11.8854 4.48523 12.0994C4.14538 12.3133 3.71586 12.3301 3.27561 12.1469C2.77477 11.9383 2.33181 11.5077 2.02828 10.9344C1.44475 9.83214 1.58344 8.50266 2.3315 8.03154C2.51955 7.91517 2.73253 7.85522 2.94873 7.8578C3.15155 7.86009 3.35227 7.90278 3.54101 7.98376C4.04185 8.19244 4.48481 8.62305 4.78835 9.19637C5.09188 9.7697 5.21239 10.4036 5.12778 10.9809ZM6.95473 7.5018C7.5467 8.01785 8.2227 8.28659 8.90631 8.28653C9.11108 8.28646 9.31524 8.26244 9.51531 8.21489C11.2723 7.79837 12.3376 5.63302 11.89 3.38796C11.6801 2.33426 11.1696 1.40981 10.4527 0.784785C9.685 0.115498 8.77564 -0.137842 7.89212 0.0716935C6.13519 0.488151 5.0699 2.6535 5.51739 4.89857C5.7274 5.95232 6.23788 6.87677 6.95473 7.5018ZM8.2462 1.84831C8.32721 1.82926 8.40986 1.81974 8.49274 1.81991C8.80263 1.81991 9.12138 1.95212 9.41163 2.20517C9.83036 2.57021 10.132 3.12751 10.2609 3.77447C10.5089 5.01845 10.0053 6.23845 9.16119 6.43855C8.77768 6.52946 8.36379 6.40287 7.99586 6.08203C7.57713 5.71694 7.27552 5.15963 7.14662 4.51273C6.89857 3.26842 7.40217 2.04842 8.2462 1.84831ZM23.5021 6.45702C22.7191 5.96408 21.7821 5.90318 20.864 6.2856C20.0066 6.6428 19.2622 7.35373 18.7678 8.28755C18.2734 9.22137 18.081 10.2799 18.2259 11.2683C18.3813 12.3266 18.898 13.1809 19.6811 13.6739C20.1209 13.9509 20.6202 14.0957 21.128 14.0937C21.5357 14.0909 21.9394 14.0068 22.3192 13.8454C23.1766 13.4882 23.9211 12.7772 24.4155 11.8434C25.469 9.85373 25.0592 7.43742 23.5021 6.45702ZM22.9717 10.9344C22.6682 11.5077 22.2252 11.9383 21.7244 12.1469C21.2843 12.3303 20.8547 12.3134 20.5149 12.0994C20.175 11.8853 19.947 11.4882 19.8723 10.9809C19.7876 10.4036 19.908 9.76993 20.2116 9.19689C20.5152 8.62384 20.9581 8.19296 21.459 7.98427C21.6477 7.90322 21.8484 7.86045 22.0512 7.85808C22.2675 7.8555 22.4804 7.91545 22.6685 8.03183C23.4165 8.50254 23.5554 9.83185 22.9717 10.9344ZM15.4847 8.21489C15.6847 8.26244 15.8889 8.28646 16.0937 8.28653C16.7772 8.28653 17.4535 8.01785 18.0452 7.5018C18.7621 6.87682 19.2726 5.95232 19.4826 4.89862C19.9301 2.65356 18.8648 0.488208 17.1079 0.0717503C16.2244 -0.137672 15.315 0.115498 14.5473 0.784841C13.8304 1.40981 13.3199 2.33431 13.1099 3.38796C12.6624 5.63302 13.7277 7.79837 15.4847 8.21489ZM14.7391 3.77419C14.868 3.12723 15.1696 2.5697 15.5883 2.20489C15.8786 1.95183 16.1973 1.81962 16.5072 1.81962C16.5901 1.81946 16.6728 1.82898 16.7538 1.84803C17.5978 2.04813 18.1014 3.26842 17.8535 4.51211C17.7245 5.15907 17.4229 5.7166 17.0042 6.08147C16.6363 6.40225 16.2227 6.52883 15.8389 6.43798C14.9947 6.23816 14.4911 5.01799 14.7391 3.77419Z" fill="#0FA958"/>
</svg>
