<svg width="25" height="22" viewBox="0 0 25 22" fill="none" xmlns="http://www.w3.org/2000/svg">
<path fill-rule="evenodd" clip-rule="evenodd" d="M4.1402 9.48567C7.78761 3.16189 9.61132 0 12.5 0C15.3874 0 17.2124 3.16189 20.8598 9.48567L21.3148 10.274C24.346 15.5296 25.8622 18.1573 24.4922 20.0787C23.1222 22 19.7323 22 12.955 22H12.045C5.26767 22 1.87776 22 0.507788 20.0787C-0.862179 18.1573 0.654035 15.5296 3.68521 10.274L4.1402 9.48567ZM12.5 5.19444C12.7486 5.19444 12.9871 5.29102 13.1629 5.46293C13.3387 5.63484 13.4375 5.868 13.4375 6.11111V12.2222C13.4375 12.4653 13.3387 12.6985 13.1629 12.8704C12.9871 13.0423 12.7486 13.1389 12.5 13.1389C12.2514 13.1389 12.0129 13.0423 11.8371 12.8704C11.6613 12.6985 11.5625 12.4653 11.5625 12.2222V6.11111C11.5625 5.868 11.6613 5.63484 11.8371 5.46293C12.0129 5.29102 12.2514 5.19444 12.5 5.19444ZM12.5 17.1111C12.8315 17.1111 13.1494 16.9823 13.3839 16.7531C13.6183 16.5239 13.75 16.213 13.75 15.8889C13.75 15.5647 13.6183 15.2539 13.3839 15.0246C13.1494 14.7954 12.8315 14.6667 12.5 14.6667C12.1685 14.6667 11.8506 14.7954 11.6161 15.0246C11.3817 15.2539 11.25 15.5647 11.25 15.8889C11.25 16.213 11.3817 16.5239 11.6161 16.7531C11.8506 16.9823 12.1685 17.1111 12.5 17.1111Z" fill="#F1D900"/>
</svg>
