<svg width="24" height="24" viewBox="0 0 24 24" fill="none" xmlns="http://www.w3.org/2000/svg">
<g clip-path="url(#clip0_832_335)">
<path d="M12.0008 24V11.2M12.0008 12V16.8M12.0008 12C12.0008 10.3026 11.3265 8.67474 10.1263 7.4745C8.92603 6.27427 7.29817 5.59999 5.60078 5.59999H0.800781V10.4C0.800781 12.0974 1.47507 13.7252 2.6753 14.9255C3.87553 16.1257 5.5034 16.8 7.20078 16.8H12.0008M12.0008 12H16.8008C18.4982 12 20.126 11.3257 21.3263 10.1255C22.5265 8.92524 23.2008 7.29737 23.2008 5.59999V0.799988H18.4008C16.7034 0.799988 15.0755 1.47427 13.8753 2.6745C12.6751 3.87474 12.0008 5.5026 12.0008 7.19999V12ZM12.0008 12L18.4008 5.59999M12.0008 16.8L5.60078 10.4" stroke="#0FA958"/>
</g>
<defs>
<clipPath id="clip0_832_335">
<rect width="24" height="24" fill="white"/>
</clipPath>
</defs>
</svg>
