<svg width="35" height="35" viewBox="0 0 35 35" fill="none" xmlns="http://www.w3.org/2000/svg">
<path d="M20.4167 17.5L15.3125 20.4167V14.5833L20.4167 17.5Z" fill="white" stroke="white" stroke-width="1.5" stroke-linecap="round" stroke-linejoin="round"/>
<path d="M2.91602 18.5311V16.4675C2.91602 12.2456 2.91602 10.134 4.23581 8.77626C5.55706 7.41709 7.63664 7.35876 11.7943 7.24064C13.7631 7.18522 15.7756 7.14584 17.4993 7.14584C19.2216 7.14584 21.2341 7.18522 23.2043 7.24064C27.3621 7.35876 29.4416 7.41709 30.7614 8.77626C32.0827 10.134 32.0827 12.2471 32.0827 16.4675V18.5311C32.0827 22.7544 32.0827 24.8646 30.7629 26.2238C29.4416 27.5815 27.3635 27.6413 23.2043 27.7579C21.2356 27.8148 19.2231 27.8542 17.4993 27.8542C15.5973 27.8485 13.6955 27.8164 11.7943 27.7579C7.63664 27.6413 5.55706 27.5829 4.23581 26.2238C2.91602 24.8646 2.91602 22.7529 2.91602 18.5325V18.5311Z" stroke="white" stroke-width="1.5"/>
</svg>
