<svg width="31" height="26" viewBox="0 0 31 26" fill="none" xmlns="http://www.w3.org/2000/svg">
<path d="M30.7544 3.75001C29.6315 4.26043 28.4211 4.59584 27.1669 4.75626C28.4503 3.98334 29.4419 2.75834 29.9086 1.28543C28.6982 2.01459 27.3565 2.52501 25.9419 2.81668C24.7898 1.56251 23.1711 0.833344 21.3336 0.833344C17.9065 0.833344 15.1065 3.63334 15.1065 7.08959C15.1065 7.58543 15.1648 8.06668 15.2669 8.51876C10.0753 8.25626 5.45234 5.76251 2.37526 1.98543C1.83568 2.90418 1.52943 3.98334 1.52943 5.12084C1.52943 7.29376 2.62318 9.21876 4.31484 10.3125C3.27943 10.3125 2.31693 10.0208 1.47109 9.58334V9.62709C1.47109 12.6604 3.62943 15.1979 6.48776 15.7667C5.57007 16.0178 4.60665 16.0528 3.67318 15.8688C4.06927 17.112 4.845 18.1998 5.89133 18.9793C6.93765 19.7588 8.20195 20.1908 9.50651 20.2146C7.29514 21.9652 4.554 22.9115 1.73359 22.8979C1.23776 22.8979 0.741927 22.8688 0.246094 22.8104C3.01693 24.5896 6.31276 25.625 9.84193 25.625C21.3336 25.625 27.6482 16.0875 27.6482 7.81876C27.6482 7.54168 27.6482 7.27918 27.6336 7.00209C28.8586 6.12709 29.9086 5.01876 30.7544 3.75001Z" fill="white"/>
</svg>
